# xmcd
#
# Track frame offsets: 
#        150
#        9996
#        21667
#        32222
#        41560
#        51929
#        61722
#        72953
#        84341
#        95942
#        106799
#        120725
#        131268
#        144010
#        156660
#        168893
#        181196
#        193838
#        206903
#        217416
#        229013
#        239016
#        250521
#        261684
#        271919
#
# Disc length: 3766 seconds
#
# Revision: 1
# Processed by: cddbd v1.5.2PL0 Copyright (c) Steve Scherf et al.
# Submitted via: ExactAudioCopyFreeDBPlugin 1.0
#
DISCID=710eb419
DTITLE=Various Artist - 75 Original Country Love Songs
DYEAR=2015
DGENRE=Country
TTITLE0=Ned Miller - From A Jack To A King*
TTITLE1=Glen Campbell - Turn Around, Look At Me*
TTITLE2=Leroy Van Dyke - Walk On By (Wait On The Corner)*
TTITLE3=Burl Ives - A Little Bitty Tear*
TTITLE4=Dolly Parton - It's Sure Gonna Hurt*
TTITLE5=Marty Robbins - Stairway Of Love*
TTITLE6=Buck Owens - Heartaches By The Number*
TTITLE7=Hank Locklin - Send Me The Pillow You Dream On*
TTITLE8=Wanda Jackson - In The Middle Of A Heartache*
TTITLE9=Faron Young - I Miss You Already (And You're Not Even Gone)*
TTITLE10=Lefty Frizell - Always Late (With Your Kisses)*
TTITLE11=Everly Brothers The - All I Have To Do Is Dream*
TTITLE12=Patsy Cline - I Fall To Pieces*
TTITLE13=Johnny Tillotson - It Keeps Right On A-Hurtin*
TTITLE14=Johnny Cash - I Walk The Line*
TTITLE15=Hank Williams - Your Cheatin' Heart*
TTITLE16=Slim Whitman - Secret Love*
TTITLE17=Jerry Lee Lewis - You Win Again*
TTITLE18=Ferlin Husky - Gone*
TTITLE19=George Jones - She Thinks I Still Care*
TTITLE20=Willie Nelson - Touch Me*
TTITLE21=Don Gibson - Sea Of Heartache*
TTITLE22=Johnny Sea - Nobody's Darling But Mine*
TTITLE23=Hank Thompson - The Blackboard Of My Heart*
TTITLE24=Jim Reeves - He'll Have To Go*
EXTD=Compilation and Mastering: Not Now Music: 2015
EXTT0=
EXTT1=
EXTT2=
EXTT3=
EXTT4=
EXTT5=
EXTT6=
EXTT7=
EXTT8=
EXTT9=
EXTT10=
EXTT11=
EXTT12=
EXTT13=
EXTT14=
EXTT15=
EXTT16=
EXTT17=
EXTT18=
EXTT19=
EXTT20=
EXTT21=
EXTT22=
EXTT23=
EXTT24=
PLAYORDER=
